<svg xmlns="http://www.w3.org/2000/svg" width="9" height="8.4" viewBox="0 0 9 8.4">
  <g id="check-circle-07" transform="translate(0 -2)">
    <path id="Path_90" data-name="Path 90" d="M5.02,5.18a.594.594,0,0,0-.84.84l1.2,1.2a.58.58,0,0,0,.84,0l4.2-4.2a.594.594,0,1,0-.84-.84L5.8,5.96Z" transform="translate(-1.6 0)" fill="#1cd90c"/>
    <path id="Path_91" data-name="Path 91" d="M4.2,10.4A4.174,4.174,0,0,0,8.4,6.2a.6.6,0,0,0-1.2,0,2.971,2.971,0,0,1-3,3,3,3,0,0,1,0-6,3.048,3.048,0,0,1,1.02.18A.624.624,0,0,0,6,3.02a.624.624,0,0,0-.36-.78A4.033,4.033,0,0,0,4.2,2a4.2,4.2,0,0,0,0,8.4Z" transform="translate(0 0)" fill="#1cd90c"/>
  </g>
</svg>
