<svg xmlns="http://www.w3.org/2000/svg" width="46.601" height="46.601" viewBox="0 0 46.601 46.601">
  <path id="customizable" d="M46.132,36.505l-5.024-5.024-.01-.011-.011-.01-7.818-7.818L46.126,10.785a1.6,1.6,0,0,0,0-2.267L38.084.475a1.6,1.6,0,0,0-1.134-.47h0a1.559,1.559,0,0,0-.158.008,1.6,1.6,0,0,0-.975.461L27.776,8.516l0,0-4.814,4.814L20.165,10.54h0l-5.019-5.02L15.13,5.5l-.015-.013L10.1.471a1.6,1.6,0,0,0-2.267,0L.47,7.832a1.6,1.6,0,0,0,0,2.267L13.332,22.96.47,35.822A1.6,1.6,0,0,0,0,36.956V45a1.6,1.6,0,0,0,1.6,1.6H9.646a1.6,1.6,0,0,0,1.133-.469L23.64,33.27,36.5,46.133a1.6,1.6,0,0,0,2.267,0l7.362-7.361a1.6,1.6,0,0,0,0-2.267ZM36.949,15.426,31.176,9.65l5.775-5.775,5.775,5.776ZM3.87,8.965,8.963,3.871l2.766,2.767L9.182,9.185a1.6,1.6,0,0,0,2.267,2.266L14,8.9l2.768,2.768L13.245,15.19a1.6,1.6,0,0,0,2.267,2.267l3.519-3.518L20.692,15.6,15.6,20.694ZM8.982,43.4H3.206V37.62l25.7-25.7,5.775,5.776Zm28.655-.663L25.907,31,31,25.908l1.662,1.662-3.519,3.519a1.6,1.6,0,0,0,2.267,2.267l3.519-3.519L37.7,32.6,35.15,35.151a1.6,1.6,0,1,0,2.267,2.266l2.547-2.547,2.768,2.767Z" transform="translate(0 -0.001)" fill="#e59500"/>
</svg>
