<svg xmlns="http://www.w3.org/2000/svg" width="100.767" height="54" viewBox="0 0 100.767 54">
  <g id="Group_2" data-name="Group 2" transform="translate(-395.323 141)">
    <text id="milli" transform="translate(436.089 -101)" fill="#fbfbfb" font-size="31" font-family="Pacifico-Regular, Pacifico"><tspan x="0" y="0">milli</tspan></text>
    <g id="XMLID_2925_" transform="translate(395.323 -134.395)">
      <g id="XMLID_599_" transform="translate(0)">
        <path id="XMLID_600_" d="M492.716,102.468a.716.716,0,1,0-.506-.21A.721.721,0,0,0,492.716,102.468Z" transform="translate(-456.788 -93.807)" fill="#e59500"/>
        <path id="XMLID_1074_" d="M4.572,14.078a.713.713,0,0,0,.148.164l2.011,1.626,3.764,9.978a.716.716,0,0,0,.922.417L21,22.65a.716.716,0,0,0,.417-.922L17.554,11.493a.715.715,0,0,0-.922-.417l-1.67.63-.326-1.5A4.929,4.929,0,0,0,12.543,7.13L9.16,4.875,7.676,2.715,6.136.34a.716.716,0,1,0-1.2.779L6.081,2.887.4,6.376a.716.716,0,0,0-.224,1Zm15.251,7.485-8.241,3.109L8.932,17.649l1.077.871a2.331,2.331,0,0,0,3.34-3.2l-.855-1.156,3.973-1.5ZM13.237,10.506l.371,1.71-2,.754-1.246-1.685a.716.716,0,1,0-1.151.851L12.2,16.173a.9.9,0,0,1-1.289,1.234L5.707,13.2,3.287,9.512,8.632,6.243l3.117,2.078A3.5,3.5,0,0,1,13.237,10.506ZM6.876,4.078l.755,1.1L2.5,8.315l-.725-1.1Z" transform="translate(-0.054 -0.013)" fill="#e59500"/>
        <path id="XMLID_1126_" d="M73.07,161.107H65.675l1.437-3.811,2.011-1.626a.711.711,0,0,0,.148-.164l4.4-6.7a.716.716,0,0,0-.224-1L67.736,144.3l4.491-7.618a.716.716,0,1,0-1.233-.727l-4.836,8.2L64.684,146.3l-3.31,2.207a5.144,5.144,0,0,0-2.185,3.206l-.307,1.418-1.67-.63a.716.716,0,0,0-.922.417L53.2,161.107H40.721a.716.716,0,1,0,0,1.431H73.07a.716.716,0,0,0,0-1.431Zm-1.728-11.365L66.213,146.6l.755-1.1,5.1,3.132Zm-10.754,2.277a3.72,3.72,0,0,1,1.58-2.319l3.044-2.03,5.344,3.269-2.42,3.688-5.2,4.207a.9.9,0,0,1-1.289-1.234l2.984-4.037a.716.716,0,0,0-1.151-.851L62.233,154.4l-2-.754Zm-5.856,9.088,2.645-7.012,3.973,1.5-.855,1.156a2.331,2.331,0,0,0,3.34,3.2l1.077-.871-.766,2.031H54.732Z" transform="translate(-37.142 -125.896)" fill="#e59500"/>
        <path id="XMLID_1135_" d="M.716,491.987a.716.716,0,0,0,0,1.431h0a.716.716,0,1,0,0-1.431Z" transform="translate(0 -456.777)" fill="#e59500"/>
      </g>
    </g>
  </g>
</svg>
